<svg 
 xmlns="http://www.w3.org/2000/svg"
 xmlns:xlink="http://www.w3.org/1999/xlink"
 width="20px" height="31px">
<path fill-rule="evenodd"  fill="rgb(103, 58, 58)"
 d="M5.014,0.149 C5.014,0.149 15.007,10.141 15.007,10.141 C15.007,10.141 15.007,10.141 15.007,10.141 C15.007,10.141 20.003,15.137 20.003,15.137 C20.003,15.137 20.003,15.137 20.003,15.137 C20.003,15.137 20.003,15.138 20.003,15.138 C20.003,15.138 15.007,20.134 15.007,20.134 C15.007,20.134 15.007,20.134 15.007,20.134 C15.007,20.134 5.014,30.126 5.014,30.126 C5.014,30.126 0.018,25.130 0.018,25.130 C0.018,25.130 10.010,15.137 10.010,15.137 C10.010,15.137 0.018,5.145 0.018,5.145 C0.018,5.145 5.014,0.149 5.014,0.149 Z"/>
</svg>