<svg 
 xmlns="http://www.w3.org/2000/svg"
 xmlns:xlink="http://www.w3.org/1999/xlink"
 width="33px" height="32px">
<path fill-rule="evenodd"  fill="rgb(103, 58, 58)"
 d="M24.729,8.708 C24.729,3.904 20.835,0.010 16.031,0.010 C11.227,0.010 7.333,3.904 7.333,8.708 C7.333,13.512 11.140,19.095 16.031,27.470 C20.922,19.095 24.729,13.512 24.729,8.708 ZM12.912,8.497 C12.912,6.774 14.308,5.378 16.031,5.378 C17.754,5.378 19.150,6.774 19.150,8.497 C19.150,10.220 17.754,11.616 16.031,11.616 C14.308,11.616 12.912,10.220 12.912,8.497 ZM26.783,21.568 C26.783,21.568 22.217,21.568 22.217,21.568 C21.782,22.320 21.326,23.095 20.850,23.898 C20.850,23.898 25.346,23.898 25.346,23.898 C25.346,23.898 26.383,25.960 26.383,25.960 C26.383,25.960 19.626,25.960 19.626,25.960 C19.399,26.343 19.169,26.731 18.936,27.125 C18.936,27.125 21.844,27.125 21.844,27.125 C21.844,27.125 22.901,29.680 22.901,29.680 C22.901,29.680 10.000,29.680 10.000,29.680 C10.000,29.680 11.111,27.125 11.111,27.125 C11.111,27.125 13.126,27.125 13.126,27.125 C12.893,26.731 12.663,26.343 12.436,25.960 C12.436,25.960 8.270,25.960 8.270,25.960 C8.270,25.960 7.432,23.898 7.432,23.898 C7.432,23.898 11.211,23.898 11.211,23.898 C10.736,23.095 10.280,22.320 9.844,21.567 C9.844,21.567 5.279,21.567 5.279,21.567 C5.279,21.567 0.031,32.010 0.031,32.010 C0.031,32.010 32.031,32.010 32.031,32.010 C32.031,32.010 26.783,21.568 26.783,21.568 ZM8.730,29.680 C8.730,29.680 3.810,29.680 3.810,29.680 C3.810,29.680 6.417,24.493 6.417,24.493 C6.417,24.493 7.486,27.125 7.486,27.125 C7.486,27.125 9.840,27.125 9.840,27.125 C9.840,27.125 8.730,29.680 8.730,29.680 ZM23.105,27.125 C23.105,27.125 26.968,27.125 26.968,27.125 C26.968,27.125 28.252,29.680 28.252,29.680 C28.252,29.680 24.162,29.680 24.162,29.680 C24.162,29.680 23.105,27.125 23.105,27.125 Z"/>
</svg>