<svg 
 xmlns="http://www.w3.org/2000/svg"
 xmlns:xlink="http://www.w3.org/1999/xlink"
 width="32px" height="32px">
<path fill-rule="evenodd"  fill="rgb(103, 58, 58)"
 d="M16.001,3.493 C9.089,3.493 3.495,9.087 3.495,15.999 C3.495,22.911 9.090,28.504 16.001,28.504 C22.914,28.504 28.507,22.910 28.507,15.999 C28.507,9.086 22.912,3.493 16.001,3.493 M16.001,-0.003 C24.838,-0.003 32.002,7.161 32.002,15.999 C32.002,24.836 24.838,32.000 16.001,32.000 C7.164,32.000 0.000,24.836 0.000,15.999 C0.000,7.161 7.164,-0.003 16.001,-0.003 ZM11.838,24.442 C11.838,24.442 15.719,24.442 15.719,24.442 C15.719,24.442 15.719,19.086 15.719,19.086 C15.719,19.086 17.606,19.086 17.606,19.086 C21.011,19.086 23.981,17.394 23.981,13.556 C23.981,9.566 21.054,8.308 17.498,8.308 C17.498,8.308 11.838,8.308 11.838,8.308 C11.838,8.308 11.838,24.442 11.838,24.442 ZM15.719,16.028 C15.719,16.028 15.719,11.366 15.719,11.366 C15.719,11.366 17.302,11.366 17.302,11.366 C19.167,11.366 20.208,11.930 20.208,13.556 C20.208,15.139 19.297,16.028 17.411,16.028 C17.411,16.028 15.719,16.028 15.719,16.028 Z"/>
</svg>