<svg 
 xmlns="http://www.w3.org/2000/svg"
 xmlns:xlink="http://www.w3.org/1999/xlink"
 width="23px" height="32px">
<path fill-rule="evenodd"  fill="rgb(103, 58, 58)"
 d="M12.244,8.615 C12.244,8.615 9.587,9.949 9.587,9.949 C9.587,9.949 5.254,1.319 5.254,1.319 C5.254,1.319 7.911,-0.014 7.911,-0.014 C7.911,-0.014 12.244,8.615 12.244,8.615 ZM18.177,20.430 C18.177,20.430 15.520,21.763 15.520,21.763 C15.520,21.763 19.853,30.393 19.853,30.393 C19.853,30.393 22.510,29.059 22.510,29.059 C22.510,29.059 18.177,20.430 18.177,20.430 ZM8.046,10.879 C8.046,10.879 3.646,2.118 3.646,2.118 C1.864,3.071 -3.174,5.281 4.234,20.032 C11.675,34.851 16.283,32.108 18.247,31.195 C18.247,31.195 13.851,22.441 13.851,22.441 C11.028,23.838 5.277,12.380 8.046,10.879 Z"/>
</svg>