<svg 
 xmlns="http://www.w3.org/2000/svg"
 xmlns:xlink="http://www.w3.org/1999/xlink"
 width="23px" height="32px">
<path fill-rule="evenodd"  fill="rgb(103, 58, 58)"
 d="M21.822,31.418 C21.392,32.033 20.543,32.182 19.928,31.752 C19.928,31.752 14.008,27.982 14.008,27.982 C13.642,27.725 13.412,27.348 13.331,26.943 C13.331,26.943 11.511,21.660 11.511,21.660 C11.511,21.660 7.432,24.549 7.432,24.549 C7.432,24.549 4.335,30.405 4.335,30.405 C4.014,31.084 3.203,31.374 2.524,31.052 C1.845,30.731 1.556,29.920 1.877,29.241 C1.877,29.241 4.495,22.837 4.495,22.837 C4.699,22.356 4.971,21.993 5.335,21.629 C5.335,21.629 9.452,17.784 9.452,17.784 C9.452,17.784 8.236,10.989 8.236,10.989 C8.236,10.989 5.480,12.319 5.480,12.319 C4.694,12.666 4.136,12.721 3.674,12.185 C3.674,12.185 0.341,7.958 0.341,7.958 C-0.036,7.521 0.013,6.863 0.449,6.486 C0.885,6.110 1.545,6.158 1.921,6.595 C1.921,6.595 4.790,9.639 4.790,9.639 C4.790,9.639 8.109,7.425 8.109,7.425 C11.100,5.389 13.827,6.687 15.290,7.338 C15.290,7.338 18.460,9.094 18.460,9.094 C18.960,9.321 19.277,9.821 19.439,10.325 C19.439,10.325 21.226,15.193 21.226,15.193 C21.448,15.724 21.197,16.335 20.665,16.558 C20.134,16.780 19.523,16.529 19.300,15.997 C19.300,15.997 17.208,11.625 17.208,11.625 C17.208,11.625 14.536,10.734 14.536,10.734 C14.536,10.734 16.636,25.307 16.636,25.307 C16.636,25.307 21.489,29.523 21.489,29.523 C22.104,29.954 22.254,30.803 21.822,31.418 ZM8.282,5.146 C6.925,4.553 6.306,2.972 6.900,1.616 C7.493,0.259 9.074,-0.360 10.431,0.233 C11.787,0.826 12.406,2.407 11.813,3.764 C11.219,5.120 9.639,5.739 8.282,5.146 Z"/>
</svg>