<svg 
 xmlns="http://www.w3.org/2000/svg"
 xmlns:xlink="http://www.w3.org/1999/xlink"
 width="23px" height="56px">
<path fill-rule="evenodd"  fill="rgb(103, 58, 58)"
 d="M12.453,1.850 C11.360,2.975 10.814,4.324 10.814,5.897 C10.814,7.471 11.368,8.812 12.477,9.921 C13.585,11.029 14.910,11.583 16.452,11.583 C18.025,11.583 19.375,11.029 20.499,9.921 C21.623,8.812 22.186,7.471 22.186,5.897 C22.186,4.324 21.632,2.975 20.523,1.850 C19.415,0.726 18.058,0.163 16.452,0.163 C14.878,0.163 13.544,0.726 12.453,1.850 ZM16.548,18.040 C16.548,18.040 3.394,20.160 3.394,20.160 C3.394,20.160 2.912,21.702 2.912,21.702 C3.426,21.670 3.892,21.653 4.309,21.653 C5.144,21.653 5.811,21.879 6.309,22.328 C6.807,22.778 7.056,23.292 7.056,23.870 C7.056,24.770 6.798,26.103 6.285,27.869 C6.285,27.869 0.888,46.420 0.888,46.420 C0.438,47.898 0.214,49.118 0.214,50.082 C0.214,51.528 0.711,52.725 1.708,53.672 C2.703,54.619 4.036,55.093 5.707,55.093 C10.107,55.093 14.267,51.689 18.186,44.878 C18.186,44.878 16.837,44.107 16.837,44.107 C15.231,46.613 13.833,48.348 12.645,49.311 C12.227,49.697 11.794,49.889 11.344,49.889 C11.087,49.889 10.846,49.761 10.622,49.504 C10.396,49.247 10.284,48.991 10.284,48.733 C10.284,48.220 10.493,47.175 10.911,45.601 C10.911,45.601 18.861,18.040 18.861,18.040 C18.861,18.040 16.548,18.040 16.548,18.040 Z"/>
</svg>