<svg 
 xmlns="http://www.w3.org/2000/svg"
 xmlns:xlink="http://www.w3.org/1999/xlink"
 width="40px" height="37px">
<path fill-rule="evenodd"  fill="rgb(103, 58, 58)"
 d="M8.699,36.221 C8.699,36.221 0.483,36.221 0.483,36.221 C0.483,36.221 0.483,28.909 0.483,28.909 C0.483,28.909 8.699,28.909 8.699,28.909 C8.699,28.909 8.699,36.221 8.699,36.221 ZM8.699,14.846 C8.699,14.846 0.483,14.846 0.483,14.846 C0.483,14.846 0.483,22.159 0.483,22.159 C0.483,22.159 8.699,22.159 8.699,22.159 C8.699,22.159 8.699,14.846 8.699,14.846 ZM8.699,0.784 C8.699,0.784 0.483,0.784 0.483,0.784 C0.483,0.784 0.483,8.096 0.483,8.096 C0.483,8.096 8.699,8.096 8.699,8.096 C8.699,8.096 8.699,0.784 8.699,0.784 ZM13.761,0.784 C13.761,0.784 13.761,8.096 13.761,8.096 C13.761,8.096 39.600,8.096 39.600,8.096 C39.600,8.096 39.600,0.784 39.600,0.784 C39.600,0.784 13.761,0.784 13.761,0.784 ZM13.761,22.159 C13.761,22.159 39.600,22.159 39.600,22.159 C39.600,22.159 39.600,14.846 39.600,14.846 C39.600,14.846 13.761,14.846 13.761,14.846 C13.761,14.846 13.761,22.159 13.761,22.159 ZM13.761,36.221 C13.761,36.221 39.600,36.221 39.600,36.221 C39.600,36.221 39.600,28.909 39.600,28.909 C39.600,28.909 13.761,28.909 13.761,28.909 C13.761,28.909 13.761,36.221 13.761,36.221 Z"/>
</svg>