<svg 
 xmlns="http://www.w3.org/2000/svg"
 xmlns:xlink="http://www.w3.org/1999/xlink"
 width="81px" height="72px">
<path fill-rule="evenodd"  fill="rgb(103, 58, 58)"
 d="M38.289,32.679 C38.289,32.679 36.287,31.245 36.287,31.245 C36.287,31.245 27.494,36.014 27.494,36.014 C27.494,36.014 29.495,37.449 29.495,37.449 C29.495,37.449 31.297,38.739 31.297,38.739 C31.297,38.739 33.299,40.174 33.299,40.174 C33.299,40.174 42.092,35.405 42.092,35.405 C42.092,35.405 40.090,33.971 40.090,33.971 C40.090,33.971 38.289,32.679 38.289,32.679 ZM48.699,24.514 C48.699,24.514 38.692,29.940 38.692,29.940 C38.692,29.940 44.497,34.101 44.497,34.101 C44.497,34.101 54.504,28.674 54.504,28.674 C54.504,28.674 48.699,24.514 48.699,24.514 ZM33.232,49.832 C33.232,49.832 80.750,24.061 80.750,24.061 C80.750,24.061 48.321,0.822 48.321,0.822 C48.321,0.822 0.802,26.592 0.802,26.592 C0.802,26.592 33.232,49.832 33.232,49.832 ZM72.214,22.768 C72.214,22.768 32.359,44.383 32.359,44.383 C32.359,44.383 7.637,26.667 7.637,26.667 C7.637,26.667 47.492,5.052 47.492,5.052 C47.492,5.052 72.214,22.768 72.214,22.768 M62.027,19.806 C62.027,19.806 60.025,18.371 60.025,18.371 C60.025,18.371 51.232,23.140 51.232,23.140 C51.232,23.140 53.234,24.574 53.234,24.574 C53.234,24.574 55.036,25.865 55.036,25.865 C55.036,25.865 57.037,27.299 57.037,27.299 C57.037,27.299 65.830,22.531 65.830,22.531 C65.830,22.531 63.828,21.097 63.828,21.097 C63.828,21.097 62.027,19.806 62.027,19.806 ZM75.993,31.360 C75.993,31.360 32.334,55.072 32.334,55.072 C32.334,55.072 4.618,35.198 4.618,35.198 C4.618,35.198 0.777,37.281 0.777,37.281 C0.777,37.281 33.207,60.521 33.207,60.521 C33.207,60.521 80.725,34.751 80.725,34.751 C80.725,34.751 75.993,31.360 75.993,31.360 ZM76.006,41.871 C76.006,41.871 32.348,65.584 32.348,65.584 C32.348,65.584 4.632,45.710 4.632,45.710 C4.632,45.710 0.790,47.793 0.790,47.793 C0.790,47.793 33.220,71.033 33.220,71.033 C33.220,71.033 80.738,45.263 80.738,45.263 C80.738,45.263 76.006,41.871 76.006,41.871 ZM29.498,31.071 C29.496,31.690 29.043,32.378 28.049,32.927 C27.041,33.483 25.997,33.661 25.063,33.538 C24.042,33.404 23.130,32.911 22.051,32.051 C22.051,32.051 24.096,30.923 24.096,30.923 C24.525,31.264 24.864,31.496 25.273,31.569 C25.521,31.611 25.841,31.594 26.158,31.420 C26.475,31.245 26.588,31.063 26.540,30.850 C26.507,30.629 26.284,30.374 25.855,30.032 C24.850,29.232 24.515,29.178 23.470,29.336 C23.470,29.336 21.627,29.615 21.627,29.615 C20.147,29.834 19.153,29.625 17.513,28.318 C16.538,27.541 16.027,26.726 16.100,25.949 C16.161,25.337 16.544,24.807 17.322,24.379 C18.229,23.878 19.128,23.701 20.003,23.796 C21.097,23.910 22.169,24.454 23.233,25.302 C23.233,25.302 21.188,26.430 21.188,26.430 C20.819,26.136 20.479,25.865 20.070,25.772 C19.792,25.706 19.516,25.719 19.213,25.886 C18.925,26.044 18.856,26.242 18.903,26.435 C18.951,26.648 19.130,26.848 19.484,27.131 C20.149,27.661 20.457,27.750 21.298,27.625 C21.298,27.625 23.112,27.341 23.112,27.341 C24.940,27.050 25.920,27.326 27.826,28.845 C28.890,29.693 29.499,30.353 29.498,31.071 ZM36.255,28.240 C36.255,28.240 34.284,27.115 34.284,27.115 C34.284,27.115 31.922,28.419 31.922,28.419 C31.922,28.419 33.231,29.908 33.231,29.908 C33.231,29.908 31.099,31.084 31.099,31.084 C31.099,31.084 23.214,21.247 23.214,21.247 C23.214,21.247 25.231,20.134 25.231,20.134 C25.231,20.134 38.387,27.064 38.387,27.064 C38.387,27.064 36.255,28.240 36.255,28.240 ZM27.311,23.151 C27.311,23.151 30.420,26.697 30.420,26.697 C30.420,26.697 32.004,25.823 32.004,25.823 C32.004,25.823 27.311,23.151 27.311,23.151 ZM39.265,26.579 C39.265,26.579 28.745,18.195 28.745,18.195 C28.745,18.195 30.790,17.067 30.790,17.067 C30.790,17.067 39.419,23.944 39.419,23.944 C39.419,23.944 42.098,22.465 42.098,22.465 C42.098,22.465 43.989,23.973 43.989,23.973 C43.989,23.973 39.265,26.579 39.265,26.579 ZM45.127,23.345 C45.127,23.345 34.606,14.961 34.606,14.961 C34.606,14.961 39.330,12.355 39.330,12.355 C39.330,12.355 41.222,13.862 41.222,13.862 C41.222,13.862 38.543,15.340 38.543,15.340 C38.543,15.340 40.922,17.236 40.922,17.236 C40.922,17.236 43.226,15.964 43.226,15.964 C43.226,15.964 45.118,17.472 45.118,17.472 C45.118,17.472 42.813,18.743 42.813,18.743 C42.813,18.743 45.281,20.709 45.281,20.709 C45.281,20.709 47.960,19.231 47.960,19.231 C47.960,19.231 49.851,20.738 49.851,20.738 C49.851,20.738 45.127,23.345 45.127,23.345 ZM51.348,19.912 C51.348,19.912 49.132,18.146 49.132,18.146 C49.132,18.146 51.293,16.954 51.293,16.954 C51.293,16.954 53.509,18.720 53.509,18.720 C53.509,18.720 51.348,19.912 51.348,19.912 ZM48.405,17.411 C48.405,17.411 40.943,11.465 40.943,11.465 C40.943,11.465 42.873,10.400 42.873,10.400 C42.873,10.400 50.335,16.346 50.335,16.346 C50.335,16.346 48.405,17.411 48.405,17.411 ZM54.394,18.272 C54.394,18.272 52.178,16.505 52.178,16.505 C52.178,16.505 54.338,15.313 54.338,15.313 C54.338,15.313 56.555,17.079 56.555,17.079 C56.555,17.079 54.394,18.272 54.394,18.272 ZM51.451,15.770 C51.451,15.770 43.989,9.824 43.989,9.824 C43.989,9.824 45.919,8.760 45.919,8.760 C45.919,8.760 53.381,14.706 53.381,14.706 C53.381,14.706 51.451,15.770 51.451,15.770 Z"/>
</svg>